# generated from PmQm by Jehee Lee
:FULLY-SPECIFIED
:DEGREES
98
root 11.9171958 38.8762 -103.5172343 164.2719769 85.18385513 163.2812703
RightUpLeg -28.21803423 2.555263958 -1.821208587
RightLeg 3.596184638 -1.165220956 0.1688664413
RightFoot 1.92321941 4.172229261 4.855297184
RightToes 2.32829e-010 -1.59028e-015 9.93923e-017
Spine -9.49751 -6.05755 -10.1279
Spine1 12.8917 -7.15563 5.92882
HEad -8.55562 5.05889 1.51876
LeftShoulder1 9.93923e-017 0 1.22299e-017
LeftArm 29.9484 10.6982 -76.4209
LeftForeArm -47.6176 -30.435 18.9857
LeftHand 0.867906 6.04462 -1.99351
RightShoulder 1.98785e-016 -4.96962e-017 1.55301e-017
RightArm 23.3053 -63.3984 74.2572
RightForeArm -36.4712 18.0456 -5.27696
RightHand 1.09058 -10.5989 -3.03782
LeftUpLeg 3.194958752 1.358000791 1.173634475
LeftLeg 19.69829049 0 0
LeftFoot -18.6764958 -18.98598734 2.609386164
LeftToes 8.82235e-011 9.04645e-011 1.87288e-011
99
root 13.58818129 38.601 -103.3395299 162.5936614 84.65798399 161.4073967
RightUpLeg -29.54417228 2.625854268 -2.010430291
RightLeg 1.037509457 -0.2475929647 -0.03397348345
RightFoot -0.5358300062 3.790877739 5.389431873
RightToes 2.32829e-010 -1.59028e-015 9.93923e-017
Spine -10.2439 -6.31079 -10.7884
Spine1 13.3337 -7.44763 6.66218
HEad -8.54849 5.23696 1.35208
LeftShoulder1 9.93923e-017 0 1.22299e-017
LeftArm 29.7653 10.9109 -76.8662
LeftForeArm -47.4502 -29.5983 18.6497
LeftHand 0.826019 5.78296 -1.20192
RightShoulder 1.98785e-016 -4.96962e-017 1.55301e-017
RightArm 18.8351 -63.2616 73.5959
RightForeArm -32.1964 17.001 -3.12863
RightHand 1.1245 -10.9169 -2.9294
LeftUpLeg 5.309392994 1.565371662 2.121906581
LeftLeg 20.36998852 0 0
LeftFoot -18.2796075 -20.60688338 0.8090778004
LeftToes 8.82235e-011 9.04645e-011 1.87288e-011
100
root 15.31465769 38.4189 -103.1568107 166.6355147 84.65661364 165.2598044
RightUpLeg -29.92239444 2.982050498 -1.283305178
RightLeg 1.858433306 0 0
RightFoot -0.7090853536 3.108314911 5.135553023
RightToes 2.32829e-010 -1.59028e-015 9.93923e-017
Spine -10.7843 -6.26734 -10.1272
Spine1 13.8011 -7.57906 7.00812
HEad -8.70347 5.48074 1.07417
LeftShoulder1 9.93923e-017 0 1.22299e-017
LeftArm 29.2754 12.6124 -77.5387
LeftForeArm -48.1855 -28.5891 18.2097
LeftHand 0.801969 5.68333 -0.307163
RightShoulder 1.98785e-016 -4.96962e-017 1.55301e-017
RightArm 13.7765 -62.7281 73.6493
RightForeArm -28.2108 15.8837 -1.35653
RightHand 1.12705 -10.9789 -2.80964
LeftUpLeg 7.430212637 1.471855001 3.620397597
LeftLeg 20.92018293 0 0
LeftFoot -16.32910966 -21.66624993 -1.06334527
LeftToes 8.82235e-011 9.04645e-011 1.87288e-011
101
root 17.14912303 38.2878 -102.9581701 178.3749528 84.31448697 176.9351136
RightUpLeg -29.74134047 3.836947191 -0.1545062451
RightLeg 5.490480923 0 0
RightFoot 2.318442594 1.430335709 2.723692564
RightToes 2.32829e-010 -1.59028e-015 9.93923e-017
Spine -11.0823 -6.32863 -8.25998
Spine1 14.0797 -7.86548 7.06816
HEad -8.76553 5.69424 0.709591
LeftShoulder1 9.93923e-017 0 1.22299e-017
LeftArm 29.0949 15.9192 -78.3907
LeftForeArm -49.8271 -27.3878 17.7096
LeftHand 0.82302 5.83404 -0.371178
RightShoulder 1.98785e-016 -4.96962e-017 1.55301e-017
RightArm 10.2148 -62.1444 74.3148
RightForeArm -26.0691 15.2511 -0.567928
RightHand 1.12095 -10.8908 -2.91922
LeftUpLeg 9.189840266 0.4870509551 5.896438764
LeftLeg 22.07511676 0 0
LeftFoot -12.70166918 -21.91035152 -4.282174713
LeftToes 8.82235e-011 9.04645e-011 1.87288e-011
102
root 19.0309055 38.165 -102.7989968 -165.9687912 83.13192902 -167.2118871
RightUpLeg -29.72073408 4.896911668 1.330078054
RightLeg 10.87887743 0 0
RightFoot 6.237041301 0.007187324883 -0.210850183
RightToes 2.32829e-010 -1.59028e-015 9.93923e-017
Spine -10.9399 -6.41197 -5.48148
Spine1 13.8472 -8.17579 6.99416
HEad -8.70126 5.58694 0.205254
LeftShoulder1 9.93923e-017 0 1.22299e-017
LeftArm 29.0531 20.3477 -79.6497
LeftForeArm -50.8804 -25.8241 16.4731
LeftHand 0.855054 6.00922 -1.12265
RightShoulder 1.98785e-016 -4.96962e-017 1.55301e-017
RightArm 8.52088 -61.6776 75.5044
RightForeArm -25.8572 15.2745 -0.718439
RightHand 1.12223 -10.8038 -3.2164
LeftUpLeg 9.593467574 -2.020863962 8.652333548
LeftLeg 25.53986294 0 0
LeftFoot -6.476401811 -20.03345236 -8.556719045
LeftToes 8.82235e-011 9.04645e-011 1.87288e-011
103
root 20.83514117 38.0808 -102.7042459 -151.925481 81.56447806 -152.6502945
RightUpLeg -29.41359487 5.341584893 3.621056095
RightLeg 16.23093421 0 0
RightFoot 7.194267336 -0.1142967578 -1.940215937
RightToes 2.32829e-010 -1.59028e-015 9.93923e-017
Spine -10.1178 -6.00399 -1.72661
Spine1 13.3684 -7.93258 6.7795
HEad -9.08561 4.90566 -0.295565
LeftShoulder1 9.93923e-017 0 1.22299e-017
LeftArm 24.5905 24.621 -81.2319
LeftForeArm -46.0359 -23.8681 12.0075
LeftHand 0.858088 6.00119 -1.52961
RightShoulder 1.98785e-016 -4.96962e-017 1.55301e-017
RightArm 7.0644 -60.6268 77.2965
RightForeArm -26.1256 15.4337 -1.01533
RightHand 1.12325 -10.7692 -3.33988
LeftUpLeg 7.919831609 -3.899061055 12.28553377
LeftLeg 32.50905679 0 0
LeftFoot 2.995292431 -16.94714259 -9.809043106
LeftToes 8.82235e-011 9.04645e-011 1.87288e-011
104
root 22.45536303 37.9969 -102.6184709 -141.7837201 80.18987884 -141.8265375
RightUpLeg -28.73663134 4.481751363 6.3388322
RightLeg 21.31823508 0 0
RightFoot 4.082578793 0.9408542733 -2.97364964
RightToes 2.32829e-010 -1.59028e-015 9.93923e-017
Spine -8.85864 -5.1147 2.15902
Spine1 13.2645 -6.98564 6.37604
HEad -10.1836 3.71447 -0.298579
LeftShoulder1 9.93923e-017 0 1.22299e-017
LeftArm 13.6046 27.8414 -82.5725
LeftForeArm -33.7381 -20.3283 4.26896
LeftHand 0.85281 5.94591 -1.68942
RightShoulder 1.98785e-016 -4.96962e-017 1.55301e-017
RightArm 4.79104 -57.8585 79.5258
RightForeArm -25.3247 15.0762 -0.454751
RightHand 1.12097 -10.7754 -3.21477
LeftUpLeg 4.030649218 -4.614489388 16.14114746
LeftLeg 42.50796569 0 0
LeftFoot 13.07945347 -13.40912601 -6.384450338
LeftToes 8.82235e-011 9.04645e-011 1.87288e-011
105
root 23.93420033 37.9889 -102.5327743 -137.0788707 79.3095845 -136.5093682
RightUpLeg -27.29101416 3.657871983 8.204442441
RightLeg 24.88581828 0 0
RightFoot -0.03999157275 1.609621572 -3.918404565
RightToes 2.32829e-010 -1.59028e-015 9.93923e-017
Spine -7.82617 -4.18321 4.85693
Spine1 13.5892 -5.81217 5.89013
HEad -11.1141 2.29806 0.547046
LeftShoulder1 9.93923e-017 0 1.22299e-017
LeftArm 2.37092 30.3708 -83.2703
LeftForeArm -21.1373 -14.5294 -2.58577
LeftHand 0.879318 6.09409 -2.61043
RightShoulder 1.98785e-016 -4.96962e-017 1.55301e-017
RightArm 3.13328 -53.2422 81.7141
RightForeArm -23.927 14.2745 0.861444
RightHand 1.12761 -10.7757 -3.38363
LeftUpLeg -1.476882143 -4.876037901 16.5606752
LeftLeg 52.03555898 1.67598614 4.839281661
LeftFoot 20.83975714 -13.45341114 -6.828351385
LeftToes 8.82235e-011 9.04645e-011 1.87288e-011
